# xmcd
#
# Track frame offsets: 
#        150
#        21149
#        40250
#        61849
#        77261
#        95955
#        112637
#        135677
#        147735
#        164646
#
# Disc length: 2417 seconds
#
# Revision: 0
# Processed by: cddbd v1.5.2PL0 Copyright (c) Steve Scherf et al.
# Submitted via: ExactAudioCopyFreeDBPlugin 1.0
#
DISCID=83096f0a
DTITLE=Rabotnik - Rabotnik
DYEAR=1900
DGENRE=
TTITLE0=Novamente
TTITLE1=Infelizmente
TTITLE2=Middim
TTITLE3=Água Santa
TTITLE4=Pire C'est Rien
TTITLE5=2 Gatos
TTITLE6=Kalei
TTITLE7=GHJ
TTITLE8=57
TTITLE9=Der Zorn Gottes
EXTD=
EXTT0=
EXTT1=
EXTT2=
EXTT3=
EXTT4=
EXTT5=
EXTT6=
EXTT7=
EXTT8=
EXTT9=
PLAYORDER=
